#N canvas 913 210 948 696 10;
#X obj 26 57 s onOff;
#X obj 26 17 tgl 15 0 empty empty empty 17 7 0 10 -262144 -1 -1 1 1
;
#X obj 28 190 r onOff;
#X obj 28 216 metro 500;
#X obj 28 281 + 1;
#X obj 28 256 f;
#X msg 46 235 0;
#X floatatom 28 328 5 0 0 0 - - -, f 5;
#X obj 28 304 mod 11;
#X obj 28 353 s sendCounter;
#X obj 126 352 s osltr;
#X obj 354 226 r osltr;
#X obj 318 427 dac~;
#X obj 318 273 osc~;
#X obj 318 251 *;
#X msg 318 226 110;
#X obj 318 170 r onOff;
#X obj 318 198 metro 500;
#X floatatom 375 271 5 0 0 0 - - -, f 5;
#X obj 375 294 s sendFrequency;
#X obj 407 361 hsl 128 15 0 10 0 0 empty empty Volume -2 -8 0 10 -4034
-1 -1 0 1;
#X obj 318 296 *~;
#X obj 404 323 r sendFloatPD;
#X obj 377 406 s~ sendFloatPD;
#X connect 1 0 0 0;
#X connect 2 0 3 0;
#X connect 3 0 5 0;
#X connect 4 0 5 1;
#X connect 4 0 8 0;
#X connect 5 0 4 0;
#X connect 6 0 5 1;
#X connect 7 0 9 0;
#X connect 7 0 10 0;
#X connect 8 0 7 0;
#X connect 11 0 14 1;
#X connect 13 0 21 0;
#X connect 14 0 13 0;
#X connect 14 0 18 0;
#X connect 15 0 14 0;
#X connect 16 0 17 0;
#X connect 17 0 15 0;
#X connect 18 0 19 0;
#X connect 20 0 21 1;
#X connect 21 0 12 0;
#X connect 21 0 12 1;
#X connect 21 0 23 0;
#X connect 22 0 20 0;
